Coordinates
version=1
nRows=19
nColumns=34
inDegrees=yes

Units are S.I. units (second, meters, Newtons, ...)
If the header above contains a line with 'inDegrees', this indicates whether rotational values are in degrees (yes) or radians (no).

endheader
time	pelvis_tilt	pelvis_list	pelvis_rotation	pelvis_tx	pelvis_ty	pelvis_tz	hip_flexion_r	hip_adduction_r	hip_rotation_r	knee_angle_r	ankle_angle_r	subtalar_angle_r	mtp_angle_r	hip_flexion_l	hip_adduction_l	hip_rotation_l	knee_angle_l	ankle_angle_l	subtalar_angle_l	mtp_angle_l	lumbar_extension	lumbar_bending	lumbar_rotation	arm_flex_r	arm_add_r	arm_rot_r	elbow_flex_r	pro_sup_r	arm_flex_l	arm_add_l	arm_rot_l	elbow_flex_l	pro_sup_l
      2.36666670	    -21.21027458	      6.23317880	      0.90767408	      0.41539048	      0.57297659	     -0.13824349	     96.12944001	    -16.23936600	      5.80219355	    103.47918710	     15.70023274	    -29.86073550	      0.00000000	     87.65288866	    -13.91976899	     -5.97906913	    101.24820719	     31.61472487	     14.49099346	      0.00000000	    -50.32517872	     -4.84858193	     -0.75184524	    106.99847734	      4.89888815	     82.52977956	    125.46302976	     89.62286335	    113.21808819	     14.65175744	     78.63174979	    130.31580687	     80.63772061
      2.38333330	    -21.91735105	      6.27044386	      1.47541010	      0.41687112	      0.56864887	     -0.14405261	     97.66419885	    -17.36151671	      6.03022363	    104.55901555	     15.67471438	    -29.63793751	      0.00000000	     89.23230097	    -13.60349548	     -6.17752446	    102.63766466	     31.50593507	     15.25011556	      0.00000000	    -50.48171031	     -4.38269160	     -1.28297046	    106.98444294	      5.26227986	     83.45125348	    125.95626921	     89.42093326	    112.79444902	     14.60082891	     78.07217297	    130.41615049	     80.86119291
      2.40000000	    -22.24513968	      6.19477534	      2.33983649	      0.42073722	      0.56074724	     -0.14209339	     98.54629780	    -18.58990957	      6.29806430	    105.97579530	     15.78861924	    -29.72229675	      0.00000000	     90.34845126	    -13.36663947	     -6.21259165	    103.94149759	     31.35624817	     15.87024648	      0.00000000	    -50.76982355	     -3.78326894	     -1.79564851	    106.69908213	      5.49777220	     84.05202878	    126.20286388	     89.34253551	    112.12564926	     14.89168217	     77.85101880	    130.51820671	     81.01433435
      2.41666670	    -22.89848687	      6.45624017	      2.71185651	      0.43122363	      0.56045059	     -0.14780651	     99.04440920	    -19.64651749	      6.77083655	    106.70673551	     15.95505045	    -28.60645855	      0.00000000	     90.58041002	    -13.36164906	     -6.98023078	    104.65728733	     31.92422343	     16.49719873	      0.00000000	    -50.46774787	     -3.37403125	     -2.23253280	    105.52209189	      5.72094851	     86.23627588	    126.16386163	     89.29299961	    109.97889970	     14.78200938	     78.46520295	    130.76060110	     81.76036669
      2.43333330	    -22.90538119	      6.66854905	      2.82045636	      0.43229832	      0.55484521	     -0.14797847	     99.59218729	    -20.65274934	      7.09422607	    107.64402646	     15.86739972	    -28.25639610	      0.00000000	     90.32676725	    -13.37418517	     -7.45692680	    105.30584666	     33.13910204	     16.66070098	      0.00000000	    -50.80229158	     -3.21441429	     -2.65832257	    104.67671473	      5.75587481	     86.98576539	    126.48584886	     89.33390160	    109.16605678	     14.98484460	     78.60604162	    130.85304117	     82.25123922
      2.45000000	    -23.39610053	      7.10390183	      2.72196454	      0.43789003	      0.55268771	     -0.14894435	    100.43375717	    -21.19362935	      7.62170513	    108.28628086	     15.76451379	    -27.35401061	      0.00000000	     90.31563474	    -13.67417161	     -8.27412000	    105.69687145	     33.76814488	     17.09997534	      0.00000000	    -50.59056136	     -3.45317124	     -3.23686583	    103.64311334	      6.53038503	     88.01205440	    126.74854041	     89.52628779	    108.10289027	     15.08115432	     79.51375715	    130.95344833	     83.27015482
      2.46666670	    -23.39496465	      7.32389785	      2.62406479	      0.43761900	      0.55864985	     -0.15269721	    100.01926428	    -21.82485893	      7.62961959	    108.18219714	     16.82142466	    -25.63717467	      0.00000000	     89.66113835	    -13.61194794	     -8.93849097	    105.45004724	     34.11622815	     16.98877446	      0.00000000	    -51.01217162	     -3.31757709	     -3.58943258	    103.21795119	      6.97281648	     88.19523664	    126.63134277	     91.55472737	    107.37287948	     15.21518734	     79.22865692	    130.69918673	     91.59012524
      2.48333330	    -23.45415214	      7.74861031	      2.59562309	      0.43812455	      0.55944190	     -0.15364259	    100.20612191	    -22.53459199	      7.78723729	    107.96845934	     16.62315018	    -25.61723531	      0.00000000	     89.07507799	    -13.45589410	     -9.63959640	    105.18601411	     34.58038657	     16.95088778	      0.00000000	    -51.32121161	     -3.40442533	     -4.13918809	    103.10971233	      7.31532906	     87.92449531	    126.81817960	     91.59352462	    107.23380151	     15.20027270	     79.31357495	    130.79276935	     91.73831696
      2.50000000	    -23.62895756	      8.19256278	      2.65662034	      0.43629350	      0.56348062	     -0.15422013	    100.14347122	    -22.89798888	      7.99427217	    107.16532213	     17.03723211	    -24.68571135	      0.00000000	     88.63019267	    -13.24636856	    -10.60204920	    104.44697935	     33.92391384	     16.16797966	      0.00000000	    -51.55062846	     -3.58469705	     -4.45459140	    103.21564330	      7.73700373	     87.22718782	    127.23534546	     91.67902120	    107.81787325	     15.45369408	     78.93066670	    130.64456625	     91.97383138
      2.51666670	    -23.36400553	      8.42051530	      2.71712456	      0.43635742	      0.57211293	     -0.15747967	     99.09496708	    -23.26566116	      7.95696204	    105.96809516	     17.41085929	    -23.87913027	      0.00000000	     87.33280713	    -12.74720159	    -11.34151410	    103.12198368	     33.67944305	     15.69750217	      0.00000000	    -52.17656931	     -3.42922172	     -4.38694187	    103.57728827	      7.56130774	     86.57858607	    127.49021238	     91.81888104	    108.45310112	     15.78636876	     78.41018165	    130.21904950	     92.23729499
      2.53333330	    -23.03792995	      8.48859977	      2.81115773	      0.42870420	      0.57911757	     -0.16028832	     98.57216254	    -23.54147997	      7.73835370	    104.74014619	     17.08528217	    -24.32080990	      0.00000000	     86.39220350	    -11.99521401	    -11.62248592	    101.90372652	     33.28603962	     15.31582366	      0.00000000	    -52.66596548	     -3.10432218	     -4.18977521	    104.90084940	      7.56195384	     85.41011060	    127.81496535	     91.88715351	    109.68079037	     16.08585319	     77.34677031	    129.94966989	     92.43809131
      2.55000000	    -23.27958757	      8.47531632	      2.89469347	      0.43173797	      0.59083222	     -0.16294776	     97.75939113	    -23.52219870	      7.39210910	    102.85445427	     16.65468670	    -24.80675816	      0.00000000	     85.42222931	    -11.22066135	    -11.97567348	    100.05014140	     32.56158582	     15.10232237	      0.00000000	    -52.73919710	     -2.76672306	     -3.87879138	    105.91625988	      7.24113629	     85.20365813	    127.81531711	     91.92358481	    110.43475160	     16.54113137	     77.22591753	    129.69315723	     92.61989677
      2.56666670	    -23.33434814	      8.42791346	      2.88816684	      0.42636540	      0.59569065	     -0.15895078	     97.08903769	    -23.24346733	      6.86826897	    101.21886931	     16.13570009	    -25.58868394	      0.00000000	     84.86718889	    -10.94211836	    -11.97340843	     98.50370371	     31.55950177	     14.49772172	      0.00000000	    -52.55875553	     -2.75864026	     -3.20378812	    106.87118207	      6.56955170	     84.69566778	    127.52126795	     91.89112538	    111.65817212	     16.87853978	     76.51907507	    129.76390262	     92.72632478
      2.58333330	    -23.46078548	      8.12615084	      2.95017579	      0.42655231	      0.59941941	     -0.15207049	     96.27294160	    -22.53146718	      6.10391134	    100.16553529	     14.96796288	    -27.48738516	      0.00000000	     84.52274567	    -11.25991028	    -11.66823195	     97.48442199	     31.43098745	     14.68871312	      0.00000000	    -51.82897721	     -2.92776865	     -2.65490993	    107.44170766	      6.36657620	     84.62436029	    127.21360873	     91.82937760	    112.30440312	     16.78988950	     76.46817214	    130.14195361	     92.93603547
      2.60000000	    -23.52235042	      8.10660936	      3.25252282	      0.43187733	      0.60743653	     -0.15043057	     95.01446621	    -22.10436356	      5.76233618	     98.82986186	     15.49775088	    -28.22246313	      0.00000000	     83.36825515	    -11.23029903	    -11.74450172	     95.87641648	     30.93999011	     15.26749661	      0.00000000	    -50.70811623	     -3.34023483	     -2.51191093	    106.92903963	      6.17103950	     84.72008454	    127.11774016	     91.84459090	    112.15190343	     17.02455628	     76.56966499	    130.62223010	     92.98435850
      2.61666670	    -23.63566735	      7.90385291	      2.76204840	      0.42216516	      0.61761629	     -0.14984973	     93.62406707	    -20.77255839	      5.13671270	     96.70490266	     15.94412126	    -28.51072610	      0.00000000	     82.54860490	    -11.60876150	    -11.75316327	     94.05006287	     31.19927169	     15.44165297	      0.00000000	    -49.46852492	     -4.08255242	     -2.14480411	    107.09989608	      6.76784663	     84.13189458	    127.01745761	     91.84999826	    112.52343415	     16.82061043	     76.51304820	    130.59005573	     93.03005703
      2.63333330	    -23.01981945	      7.75735419	      2.23068533	      0.42535844	      0.62970302	     -0.14819969	     91.52256191	    -19.85019225	      4.38995788	     94.89177614	     15.29190839	    -28.69227265	      0.00000000	     80.61139235	    -11.90229451	    -11.83597881	     92.12066389	     30.89966709	     15.80970707	      0.00000000	    -48.84784352	     -4.56194106	     -1.61247009	    106.36228876	      6.30714556	     83.39317946	    126.47264267	     91.91691199	    112.27047787	     16.76167625	     77.16632739	    130.57776707	     93.07472500
      2.65000000	    -22.80748479	      7.82264011	      1.65314250	      0.42622931	      0.64267564	     -0.14764500	     89.33884932	    -19.01817842	      3.85414914	     92.59127988	     14.57254190	    -28.95043552	      0.00000000	     78.62438986	    -12.07610564	    -12.35031127	     89.59088831	     30.86828546	     15.96406995	      0.00000000	    -48.24949607	     -5.23270061	     -0.95635217	    105.80188215	      4.62802071	     81.75620554	    126.12665519	     92.06798703	    112.13475122	     17.21938888	     77.98965953	    130.18508071	     93.04507141
      2.66666670	    -22.34770058	      8.30250967	      1.03181720	      0.42266371	      0.66218178	     -0.15734701	     86.90839840	    -18.83904161	      3.90805608	     89.52455184	     13.99236772	    -28.52007426	      0.00000000	     76.08625960	    -11.27060904	    -13.47569510	     86.37462084	     30.12822294	     14.90273657	      0.00000000	    -47.94787299	     -5.43750771	     -0.38131280	    105.69507464	      3.00718910	     81.44157964	    125.82074713	     92.13365864	    111.59365328	     17.45649894	     79.10723227	    129.48718215	     92.98334069
